#!OML:ASF G:\ViconDB\ViconDB\414\test\team2\shane.ASF
:FULLY-SPECIFIED
:DEGREES
165
root 4.36009 7.7144 -6.02821 202.059 28.6692 98.7116
lowerback 24.481 -3.85762 -2.71319
upperback 12.6316 -2.85529 4.47905
thorax 0.820924 -0.876849 7.08678
lowerneck -18.2124 -8.36831 -13.8408
upperneck 14.2992 -8.69528 2.21028
head 8.12018 -4.79184 1.8047
rclavicle -4.77083e-014 -1.59028e-014
rhumerus 30.2139 15.2985 5.89818
rradius 97.4907
rwrist 51.052
rhand -53.9545 -19.3004
rfingers 7.12502
rthumb -26.3797 -47.4853
lclavicle -4.77083e-014 -1.59028e-014
lhumerus 61.7954 6.26506 5.8983
lradius 29.6443
lwrist -33.1037
lhand -66.3171 -293.621
lfingers 7.12502
lthumb -38.1424 -452.139
rfemur -47.6898 -22.8771 0.390268
rtibia 79.4674
rfoot -18.316 21.0525
rtoes 11.1642
lfemur -47.0128 29.7152 -7.66246
ltibia 102.941
lfoot -6.33293 -47.4387
ltoes -5.95675
166
root 4.36172 7.48848 -5.7256 202.34 27.4327 99.3738
lowerback 23.9216 -3.89939 -2.5977
upperback 12.7695 -2.86214 4.20923
thorax 1.21449 -0.855695 6.69325
lowerneck -18.3602 -8.37234 -13.5306
upperneck 14.8731 -8.70077 1.67702
head 8.30227 -4.85648 1.56285
rclavicle 2.35361e-013 1.33583e-013
rhumerus 30.2139 15.2985 5.89818
rradius 97.4907
rwrist 51.052
rhand -53.9545 -19.3004
rfingers 7.12502
rthumb -26.3797 -47.4853
lclavicle 2.35361e-013 1.33583e-013
lhumerus 62.1271 6.93653 6.48108
lradius 29.792
lwrist -34.2474
lhand -65.6293 -304.914
lfingers 7.12502
lthumb -37.4927 -278.978
rfemur -48.5902 -24.6085 2.97497
rtibia 81.2244
rfoot -18.954 21.7693
rtoes 8.58659
lfemur -46.0638 29.4072 -9.10668
ltibia 102.861
lfoot -4.4546 -47.7097
ltoes -6.17323
167
root 4.37546 7.25753 -5.43415 202.506 25.8189 99.8499
lowerback 23.3984 -4.06596 -2.42253
upperback 12.7812 -3.01253 4.09288
thorax 1.47651 -0.901769 6.47031
lowerneck -18.3482 -8.32185 -13.445
upperneck 15.5377 -8.61624 1.20817
head 8.49735 -4.89474 1.39112
rclavicle 1.27222e-014 9.54166e-015
rhumerus 30.2139 15.2985 5.89818
rradius 97.4907
rwrist 51.052
rhand -53.9545 -19.3004
rfingers 7.12502
rthumb -26.3797 -47.4853
lclavicle 1.27222e-014 9.54166e-015
lhumerus 62.368 7.45989 7.43436
lradius 30.0345
lwrist -35.7384
lhand -64.8294 -309.321
lfingers 7.12502
lthumb -36.7363 -283.189
rfemur -48.7449 -26.2106 5.07128
rtibia 82.6335
rfoot -18.9418 21.7781
rtoes 7.89848
lfemur -44.9035 28.4458 -10.2226
ltibia 102.597
lfoot -1.18811 -48.794
ltoes -5.89149
168
root 4.40412 7.03143 -5.14415 202.405 24.1014 100.139
lowerback 23.2074 -4.21935 -2.16038
upperback 12.7554 -3.12721 3.91932
thorax 1.5188 -0.914096 6.14345
lowerneck -18.1409 -8.18889 -13.8044
upperneck 16.2547 -8.37799 1.02052
head 8.70248 -4.86567 1.40764
rclavicle -6.36111e-015 1.145e-013
rhumerus 30.2139 15.2985 5.89818
rradius 97.4907
rwrist 51.052
rhand -53.9545 -19.3004
rfingers 7.12502
rthumb -26.3797 -47.4853
lclavicle -6.36111e-015 1.145e-013
lhumerus 62.2764 7.62281 7.43151
lradius 30.9904
lwrist -36.0331
lhand -65.1127 -310.289
lfingers 7.12502
lthumb -37.0043 -284.225
rfemur -48.2113 -25.8644 6.29205
rtibia 83.4504
rfoot -18.1627 21.2245
rtoes 9.78959
lfemur -43.4669 27.0565 -11.0687
ltibia 102.109
lfoot 1.85798 -49.5591
ltoes -6.34399
169
root 4.44811 6.80815 -4.85993 202.292 22.2264 100.325
lowerback 23.1103 -4.40744 -1.60862
upperback 12.6462 -3.25134 3.68366
thorax 1.39202 -0.912696 5.5913
lowerneck -17.891 -8.1792 -13.7286
upperneck 16.8494 -8.45682 0.998363
head 8.8664 -4.92976 1.37522
rclavicle -6.36111e-014 -7.31528e-014
rhumerus 30.2139 15.2985 5.89818
rradius 97.4907
rwrist 51.052
rhand -53.9545 -19.3004
rfingers 7.12502
rthumb -26.3797 -47.4853
lclavicle -6.36111e-014 -7.31528e-014
lhumerus 62.8449 7.91327 8.78813
lradius 31.4362
lwrist -36.3231
lhand -63.3444 -319.767
lfingers 7.12502
lthumb -35.3296 -293.288
rfemur -47.4723 -24.2675 7.10972
rtibia 84.0488
rfoot -18.3246 20.4087
rtoes 8.74162
lfemur -42.039 25.2527 -11.7247
ltibia 101.561
lfoot 5.94012 -50.6211
ltoes -5.47864
170
root 4.57328 6.53573 -4.56732 201.719 21.8812 100.911
lowerback 24.121 -3.50832 -2.77251
upperback 12.5914 -2.33011 3.71624
thorax 0.826277 -0.506456 6.14338
lowerneck -17.4266 -8.08915 -13.931
upperneck 17.3822 -8.38377 0.912911
head 8.97253 -4.95435 1.39254
rclavicle -4.77083e-014 -1.08139e-013
rhumerus 30.2139 15.2985 5.89818
rradius 97.4907
rwrist 51.052
rhand -53.9545 -19.3004
rfingers 7.12502
rthumb -26.3797 -47.4853
lclavicle -4.77083e-014 -1.08139e-013
lhumerus 62.8122 7.95763 9.06744
lradius 32.3284
lwrist -36.2241
lhand -63.6372 -320.566
lfingers 7.12502
lthumb -35.6071 -294.154
rfemur -45.8312 -20.5803 7.62504
rtibia 83.6141
rfoot -17.9501 20.5428
rtoes 8.74162
lfemur -38.4709 25.1566 -11.587
ltibia 100.167
lfoot 8.88534 -51.7918
ltoes -4.97684
171
root 4.57328 6.53573 -4.56732 201.719 21.8812 100.911
lowerback 24.121 -3.50832 -2.77251
upperback 12.5914 -2.33011 3.71624
thorax 0.826277 -0.506456 6.14338
lowerneck -17.4266 -8.08915 -13.931
upperneck 17.3822 -8.38377 0.912911
head 8.97253 -4.95435 1.39254
rclavicle -4.77083e-014 -1.08139e-013
rhumerus 30.2139 15.2985 5.89818
rradius 97.4907
rwrist 51.052
rhand -53.9545 -19.3004
rfingers 7.12502
rthumb -26.3797 -47.4853
lclavicle -4.77083e-014 -1.08139e-013
lhumerus 62.8122 7.95763 9.06744
lradius 32.3284
lwrist -36.2241
lhand -63.6372 -320.566
lfingers 7.12502
lthumb -35.6071 -294.154
rfemur -45.8312 -20.5803 7.62504
rtibia 83.6141
rfoot -17.9501 20.5428
rtoes 8.74162
lfemur -38.4709 25.1566 -11.587
ltibia 100.167
lfoot 8.88534 -51.7918
ltoes -4.97684
172
root 4.57328 6.53573 -4.56732 201.719 21.8812 100.911
lowerback 24.121 -3.50832 -2.77251
upperback 12.5914 -2.33011 3.71624
thorax 0.826277 -0.506456 6.14338
lowerneck -17.4266 -8.08915 -13.931
upperneck 17.3822 -8.38377 0.912911
head 8.97253 -4.95435 1.39254
rclavicle -4.77083e-014 -1.08139e-013
rhumerus 30.2139 15.2985 5.89818
rradius 97.4907
rwrist 51.052
rhand -53.9545 -19.3004
rfingers 7.12502
rthumb -26.3797 -47.4853
lclavicle -4.77083e-014 -1.08139e-013
lhumerus 62.8122 7.95763 9.06744
lradius 32.3284
lwrist -36.2241
lhand -63.6372 -320.566
lfingers 7.12502
lthumb -35.6071 -294.154
rfemur -45.8312 -20.5803 7.62504
rtibia 83.6141
rfoot -17.9501 20.5428
rtoes 8.74162
lfemur -38.4709 25.1566 -11.587
ltibia 100.167
lfoot 8.88534 -51.7918
ltoes -4.97684
173
root 4.57328 6.53573 -4.56732 201.719 21.8812 100.911
lowerback 24.121 -3.50832 -2.77251
upperback 12.5914 -2.33011 3.71624
thorax 0.826277 -0.506456 6.14338
lowerneck -17.4266 -8.08915 -13.931
upperneck 17.3822 -8.38377 0.912911
head 8.97253 -4.95435 1.39254
rclavicle -4.77083e-014 -1.08139e-013
rhumerus 30.2139 15.2985 5.89818
rradius 97.4907
rwrist 51.052
rhand -53.9545 -19.3004
rfingers 7.12502
rthumb -26.3797 -47.4853
lclavicle -4.77083e-014 -1.08139e-013
lhumerus 62.8122 7.95763 9.06744
lradius 32.3284
lwrist -36.2241
lhand -63.6372 -320.566
lfingers 7.12502
lthumb -35.6071 -294.154
rfemur -45.8312 -20.5803 7.62504
rtibia 83.6141
rfoot -17.9501 20.5428
rtoes 8.74162
lfemur -38.4709 25.1566 -11.587
ltibia 100.167
lfoot 8.88534 -51.7918
ltoes -4.97684
174
root 4.57328 6.53573 -4.56732 201.719 21.8812 100.911
lowerback 24.121 -3.50832 -2.77251
upperback 12.5914 -2.33011 3.71624
thorax 0.826277 -0.506456 6.14338
lowerneck -17.4266 -8.08915 -13.931
upperneck 17.3822 -8.38377 0.912911
head 8.97253 -4.95435 1.39254
rclavicle -4.77083e-014 -1.08139e-013
rhumerus 30.2139 15.2985 5.89818
rradius 97.4907
rwrist 51.052
rhand -53.9545 -19.3004
rfingers 7.12502
rthumb -26.3797 -47.4853
lclavicle -4.77083e-014 -1.08139e-013
lhumerus 62.8122 7.95763 9.06744
lradius 32.3284
lwrist -36.2241
lhand -63.6372 -320.566
lfingers 7.12502
lthumb -35.6071 -294.154
rfemur -45.8312 -20.5803 7.62504
rtibia 83.6141
rfoot -17.9501 20.5428
rtoes 8.74162
lfemur -38.4709 25.1566 -11.587
ltibia 100.167
lfoot 8.88534 -51.7918
ltoes -4.97684
175
root 4.57328 6.53573 -4.56732 201.719 21.8812 100.911
lowerback 24.121 -3.50832 -2.77251
upperback 12.5914 -2.33011 3.71624
thorax 0.826277 -0.506456 6.14338
lowerneck -17.4266 -8.08915 -13.931
upperneck 17.3822 -8.38377 0.912911
head 8.97253 -4.95435 1.39254
rclavicle -4.77083e-014 -1.08139e-013
rhumerus 30.2139 15.2985 5.89818
rradius 97.4907
rwrist 51.052
rhand -53.9545 -19.3004
rfingers 7.12502
rthumb -26.3797 -47.4853
lclavicle -4.77083e-014 -1.08139e-013
lhumerus 62.8122 7.95763 9.06744
lradius 32.3284
lwrist -36.2241
lhand -63.6372 -320.566
lfingers 7.12502
lthumb -35.6071 -294.154
rfemur -45.8312 -20.5803 7.62504
rtibia 83.6141
rfoot -17.9501 20.5428
rtoes 8.74162
lfemur -38.4709 25.1566 -11.587
ltibia 100.167
lfoot 8.88534 -51.7918
ltoes -4.97684
176
root 4.57328 6.53573 -4.56732 201.719 21.8812 100.911
lowerback 24.121 -3.50832 -2.77251
upperback 12.5914 -2.33011 3.71624
thorax 0.826277 -0.506456 6.14338
lowerneck -17.4266 -8.08915 -13.931
upperneck 17.3822 -8.38377 0.912911
head 8.97253 -4.95435 1.39254
rclavicle -4.77083e-014 -1.08139e-013
rhumerus 30.2139 15.2985 5.89818
rradius 97.4907
rwrist 51.052
rhand -53.9545 -19.3004
rfingers 7.12502
rthumb -26.3797 -47.4853
lclavicle -4.77083e-014 -1.08139e-013
lhumerus 62.8122 7.95763 9.06744
lradius 32.3284
lwrist -36.2241
lhand -63.6372 -320.566
lfingers 7.12502
lthumb -35.6071 -294.154
rfemur -45.8312 -20.5803 7.62504
rtibia 83.6141
rfoot -17.9501 20.5428
rtoes 8.74162
lfemur -38.4709 25.1566 -11.587
ltibia 100.167
lfoot 8.88534 -51.7918
ltoes -4.97684
177
root 4.57328 6.53573 -4.56732 201.719 21.8812 100.911
lowerback 24.121 -3.50832 -2.77251
upperback 12.5914 -2.33011 3.71624
thorax 0.826277 -0.506456 6.14338
lowerneck -17.4266 -8.08915 -13.931
upperneck 17.3822 -8.38377 0.912911
head 8.97253 -4.95435 1.39254
rclavicle -4.77083e-014 -1.08139e-013
rhumerus 30.2139 15.2985 5.89818
rradius 97.4907
rwrist 51.052
rhand -53.9545 -19.3004
rfingers 7.12502
rthumb -26.3797 -47.4853
lclavicle -4.77083e-014 -1.08139e-013
lhumerus 62.8122 7.95763 9.06744
lradius 32.3284
lwrist -36.2241
lhand -63.6372 -320.566
lfingers 7.12502
lthumb -35.6071 -294.154
rfemur -45.8312 -20.5803 7.62504
rtibia 83.6141
rfoot -17.9501 20.5428
rtoes 8.74162
lfemur -38.4709 25.1566 -11.587
ltibia 100.167
lfoot 8.88534 -51.7918
ltoes -4.97684
